<?xml version="1.0" encoding="iso-8859-1"?>
<!-- Uploaded to: SVG Repo, www.svgrepo.com, Generator: SVG Repo Mixer Tools -->
<svg fill="#000000" height="800px" width="800px" version="1.1" id="Layer_1" xmlns="http://www.w3.org/2000/svg" xmlns:xlink="http://www.w3.org/1999/xlink" 
	 viewBox="0 0 512 512" xml:space="preserve">
<g>
	<g>
		<path d="M511.921,250.052c-0.733-30.931-6.977-61.718-18.618-90.468c-12.804-31.622-32.147-60.503-56.263-84.612
			c-12.861-12.861-27.063-24.381-42.336-34.261c-15.124-9.783-31.289-17.951-48.143-24.308
			c-16.899-6.375-34.477-10.925-52.341-13.581c-20.529-3.052-41.426-3.635-62.093-1.722c-18.285,1.693-36.381,5.317-53.886,10.872
			c-17.233,5.468-33.872,12.791-49.546,21.802c-15.841,9.107-30.684,19.93-44.233,32.189c-3.233,2.925-6.356,5.957-9.469,9.009
			c-22.517,22.517-40.834,49.152-53.613,78.329c-8.179,18.674-14.098,38.327-17.577,58.416c-0.012,0.07-0.024,0.14-0.037,0.211
			c-5.549,32.177-4.956,65.44,1.778,97.391c6.093,28.91,17.267,56.691,32.899,81.763c10.376,16.644,22.682,32.068,36.55,45.935
			C123.346,485.371,187.635,512,256.016,512s132.669-26.629,181.022-74.982c33.886-33.886,57.95-76.989,68.582-123.743
			C510.336,292.54,512.424,271.262,511.921,250.052z M354.725,37.325c26.054,11.775,50.036,28.282,70.857,49.104
			c1.978,1.978,3.901,3.993,5.801,6.027c-7.78,2.818-13.809,9.372-15.747,17.827l-19.38,84.522
			c-0.553,2.413-0.731,4.843-0.576,7.224l-54.272,23.963c-1.081-1.161-2.27-2.242-3.592-3.202l-67.207-48.828
			c-2.01-1.46-4.198-2.585-6.495-3.378v-64.727c1.709-0.59,3.358-1.36,4.913-2.317l73.866-45.455
			C350.262,53.554,354.604,45.796,354.725,37.325z M331.433,245.549l-25.671,79.006c-0.571,1.758-1.665,3.227-3.074,4.269
			c-0.029,0.021-0.056,0.045-0.085,0.067c-1.434,1.034-3.185,1.628-5.05,1.628h-83.072c-1.863,0-3.612-0.593-5.045-1.624
			c-0.032-0.025-0.065-0.051-0.097-0.075c-1.406-1.042-2.498-2.51-3.068-4.265l-25.671-79.005c-1.159-3.568,0.1-7.447,3.136-9.652
			l67.207-48.827c1.484-1.079,3.239-1.648,5.074-1.648c1.835,0,3.589,0.57,5.074,1.648l67.207,48.828
			C331.331,238.102,332.592,241.982,331.433,245.549z M173.555,35.888c0.143-1.262,0.973-5.503,5.679-7.096
			c49.443-16.742,104.122-16.741,153.563,0c4.705,1.593,5.536,5.833,5.679,7.095c0.146,1.293,0.285,5.72-4.07,8.4L260.54,89.742
			c-2.723,1.676-6.327,1.676-9.049,0l-73.866-45.454C173.27,41.608,173.409,37.181,173.555,35.888z M86.449,86.429
			c20.821-20.821,44.803-37.329,70.856-49.104c0.121,8.471,4.464,16.229,11.828,20.761l73.867,45.454
			c1.555,0.957,3.206,1.727,4.915,2.317v64.727c-2.298,0.794-4.486,1.917-6.497,3.378l-67.207,48.828
			c-1.321,0.96-2.51,2.041-3.591,3.202l-54.272-23.962c0.156-2.383-0.023-4.812-0.576-7.225l-19.38-84.522
			c-1.939-8.456-7.968-15.01-15.747-17.827C82.547,90.423,84.472,88.406,86.449,86.429z M16.226,253.713
			c0.138-13.076,1.284-26.14,3.509-39.028c0.008-0.042,0.015-0.085,0.023-0.127c5.759-33.244,18.67-65.057,37.63-92.959
			c2.581-3.799,5.271-7.524,8.062-11.171c2.077-2.714,4.722-3.284,6.575-3.284c3.498,0,7.509,2.09,8.579,6.76l19.378,84.522
			c0.732,3.194-0.379,6.478-2.9,8.571l-66.986,55.614c-1.586,1.317-3.39,1.983-5.363,1.983c-5.555,0.001-7.894-3.995-8.401-8.612
			C16.251,255.236,16.218,254.476,16.226,253.713z M45.71,371.415c-15.515-28.176-25.185-59.256-28.348-91.733
			c2.33,0.723,4.806,1.114,7.372,1.114c5.771,0,11.205-1.978,15.711-5.719l66.986-55.614c0.94-0.781,1.808-1.62,2.609-2.508
			l54.013,23.848c-0.268,3.222,0.092,6.531,1.138,9.753l25.671,79.006c0.689,2.121,1.655,4.088,2.827,5.891l-32.491,36.339
			c-2.276-0.945-4.711-1.573-7.257-1.811l-86.267-8.093c-0.802-0.076-1.614-0.113-2.411-0.113
			C57.532,361.773,50.373,365.388,45.71,371.415z M190.449,480.238c-2.19,3.214-6.081,4.636-9.826,3.396
			c-49.407-16.351-92.9-49.102-122.469-92.222c-2.609-3.804-1.218-7.391-0.499-8.756c1.544-2.93,4.388-4.68,7.608-4.68
			c0.294,0,0.596,0.014,0.898,0.043l86.266,8.093c3.263,0.306,6.033,2.391,7.23,5.441l31.666,80.689
			C192.778,475.949,191.401,478.842,190.449,480.238z M256.017,495.799c-17.938,0-35.574-1.958-52.666-5.77
			c0.161-0.221,0.328-0.438,0.484-0.665c4.683-6.869,5.621-15.268,2.569-23.041l-31.666-80.689
			c-0.417-1.063-0.904-2.083-1.448-3.061l33.226-37.159c2.516,0.848,5.196,1.309,7.965,1.309h83.072c2.768,0,5.449-0.46,7.964-1.309
			l33.226,37.159c-0.544,0.977-1.031,1.998-1.448,3.061l-31.666,80.689c-3.05,7.772-2.114,16.17,2.569,23.039
			c0.156,0.229,0.323,0.446,0.486,0.669C291.589,493.841,273.953,495.799,256.017,495.799z M453.878,391.411
			c-29.569,43.119-73.062,75.872-122.469,92.222c-0.929,0.308-1.862,0.463-2.774,0.463c-2.768,0-5.405-1.443-7.053-3.861
			c-0.951-1.394-2.328-4.287-0.874-7.994l31.666-80.689c1.197-3.05,3.967-5.136,7.23-5.441l86.267-8.093
			c0.301-0.028,0.604-0.043,0.899-0.043c3.219,0,6.062,1.75,7.607,4.681C455.095,384.022,456.486,387.607,453.878,391.411z
			 M466.321,371.416c-4.663-6.028-11.822-9.643-19.552-9.643c-0.798,0-1.609,0.038-2.411,0.113l-86.268,8.093
			c-2.546,0.239-4.981,0.866-7.256,1.811l-32.491-36.339c1.172-1.803,2.137-3.769,2.827-5.891l25.671-79.006
			c1.047-3.222,1.406-6.531,1.139-9.753l54.012-23.849c0.801,0.888,1.67,1.728,2.609,2.508l66.986,55.614
			c4.506,3.741,9.939,5.719,15.711,5.719c0.001,0,0.001,0,0.002,0c2.565,0,5.041-0.391,7.37-1.114
			C491.507,312.16,481.838,343.241,466.321,371.416z M495.815,256.415c-0.058,5.122-4.357,8.181-8.515,8.181
			c-1.974,0-3.779-0.667-5.364-1.983l-66.987-55.614c-2.521-2.093-3.631-5.378-2.9-8.571l19.379-84.522
			c1.071-4.67,5.081-6.76,8.579-6.76c1.853,0,4.498,0.569,6.575,3.284c30.576,39.955,48.026,89.658,49.17,140.139
			c0.041,1.809,0.067,3.618,0.067,5.428C495.82,256.135,495.815,256.274,495.815,256.415z"/>
	</g>
</g>
</svg>